<svg xmlns="http://www.w3.org/2000/svg" viewBox="0 0 1200 675" role="img" aria-labelledby="t d">
<title id="t">Ilustración de exposición</title><desc id="d">Galería luminosa con obras enmarcadas y visitantes.</desc>
<defs><linearGradient id="wall" x1="0" y1="0" x2="0" y2="1"><stop stop-color="#fff8e9"/><stop offset="1" stop-color="#ead4b2"/></linearGradient><linearGradient id="floor" x1="0" y1="0" x2="1" y2="0"><stop stop-color="#805b3a"/><stop offset=".5" stop-color="#b7895b"/><stop offset="1" stop-color="#705034"/></linearGradient><filter id="shadow"><feDropShadow dx="0" dy="12" stdDeviation="12" flood-opacity=".16"/></filter></defs>
<rect width="1200" height="675" fill="url(#wall)"/><path d="M0 525h1200v150H0Z" fill="url(#floor)"/><path d="M0 505c400-24 800-24 1200 0" stroke="#c5a477" stroke-width="5" fill="none"/>
<g filter="url(#shadow)" stroke="#8c673e" stroke-width="14" fill="#fffdf7"><rect x="80" y="92" width="286" height="330"/><rect x="456" y="138" width="288" height="284"/><rect x="834" y="78" width="286" height="344"/></g>
<g><rect x="108" y="120" width="230" height="274" fill="#205f7d"/><circle cx="223" cy="238" r="70" fill="#f7bc3e"/><path d="M120 354 228 225l98 129Z" fill="#da4b3d" opacity=".9"/><rect x="486" y="168" width="228" height="224" fill="#2d8f83"/><path d="M500 366c42-90 76-137 105-137 26 0 56 42 95 137Z" fill="#f3d890"/><circle cx="636" cy="223" r="36" fill="#e15a4a"/><rect x="862" y="106" width="230" height="288" fill="#253e70"/><path d="m878 368 87-142 52 80 62-116v178Z" fill="#6dc6c4"/><circle cx="961" cy="172" r="42" fill="#f2c441"/></g>
<g fill="#22324a"><circle cx="300" cy="493" r="28"/><path d="M268 530c20-29 62-29 83 0l16 113H251Z"/><circle cx="755" cy="506" r="27"/><path d="M724 540c20-27 59-27 79 0l18 103H708Z"/></g>
<g fill="#25344b" opacity=".45"><ellipse cx="300" cy="643" rx="74" ry="12"/><ellipse cx="755" cy="643" rx="70" ry="12"/></g>
<g fill="#fff" opacity=".7"><path d="M145 0h110l-45 93h-110Z"/><path d="M548 0h102l-34 116H514Z"/><path d="M930 0h120l-28 80H902Z"/></g>
</svg>