<svg xmlns="http://www.w3.org/2000/svg" viewBox="0 0 1200 675" role="img" aria-labelledby="t d">
<title id="t">Ilustración de teatro</title><desc id="d">Escenario con cortinas rojas, luces cálidas y dos intérpretes.</desc>
<defs><linearGradient id="bg" x1="0" y1="0" x2="0" y2="1"><stop stop-color="#09080b"/><stop offset="1" stop-color="#2a0d0f"/></linearGradient><radialGradient id="spot"><stop stop-color="#ffe2a3" stop-opacity=".92"/><stop offset=".55" stop-color="#f5a536" stop-opacity=".25"/><stop offset="1" stop-color="#000" stop-opacity="0"/></radialGradient><linearGradient id="curtain"><stop stop-color="#7c0815"/><stop offset=".48" stop-color="#c1282f"/><stop offset="1" stop-color="#6d0712"/></linearGradient></defs>
<rect width="1200" height="675" fill="url(#bg)"/><ellipse cx="600" cy="370" rx="420" ry="300" fill="url(#spot)"/>
<path d="M0 0h310c-80 150-77 366 8 675H0Z" fill="url(#curtain)"/><path d="M1200 0H890c80 150 77 366-8 675h318Z" fill="url(#curtain)"/>
<g opacity=".38" stroke="#ff9c78" stroke-width="16"><path d="M76 0c-34 214-20 442 36 675M180 0c-30 214-16 442 40 675M1124 0c34 214 20 442-36 675M1020 0c30 214 16 442-40 675"/></g>
<path d="M0 586c270-39 510-46 1200 0v89H0Z" fill="#3c160f"/><ellipse cx="600" cy="560" rx="330" ry="52" fill="#e3a64a" opacity=".38"/>
<g fill="#171015">
  <circle cx="485" cy="280" r="43"/><path d="M432 333c35-38 91-38 125 0l34 190H405Z"/><path d="M466 349c-84 58-118 101-139 160" stroke="#171015" stroke-width="26" fill="none" stroke-linecap="round"/><path d="M542 344c79-53 136-105 179-168" stroke="#171015" stroke-width="25" fill="none" stroke-linecap="round"/>
  <circle cx="750" cy="322" r="38"/><path d="M704 369c31-34 80-34 111 0l26 156H679Z"/><path d="M719 385c-52-27-93-48-135-87" stroke="#171015" stroke-width="23" fill="none" stroke-linecap="round"/>
</g>
<g fill="#f6d7a2"><circle cx="482" cy="274" r="31"/><circle cx="749" cy="318" r="28"/></g>
<g stroke="#f8e6ba" stroke-width="5" opacity=".65"><path d="M386 555h428M440 585h322"/></g>
</svg>