<svg xmlns="http://www.w3.org/2000/svg" viewBox="0 0 1200 675" role="img" aria-labelledby="t d">
<title id="t">Ilustración de cine</title><desc id="d">Sala de cine de estilo art déco con butacas, proyector y una pantalla con siluetas de Valparaíso.</desc>
<defs><linearGradient id="bg" x1="0" y1="0" x2="0" y2="1"><stop stop-color="#0c1734"/><stop offset="1" stop-color="#25113e"/></linearGradient><linearGradient id="screen" x1="0" y1="0" x2="1" y2="1"><stop stop-color="#9edff0"/><stop offset=".55" stop-color="#f3c65a"/><stop offset="1" stop-color="#e36862"/></linearGradient><linearGradient id="beam" x1="0" y1="0" x2="1" y2="0"><stop stop-color="#fff7d0" stop-opacity=".74"/><stop offset="1" stop-color="#fff7d0" stop-opacity=".05"/></linearGradient></defs>
<rect width="1200" height="675" fill="url(#bg)"/>
<path d="M0 0h180l75 675H0Z" fill="#7f1737"/><path d="M1200 0h-180l-75 675h255Z" fill="#7f1737"/><g stroke="#d44d66" stroke-width="14" opacity=".45"><path d="M58 0 125 675M126 0l73 675M1142 0l-67 675M1074 0l-73 675"/></g>
<rect x="230" y="72" width="740" height="352" rx="16" fill="#f7e9c8"/><rect x="258" y="100" width="684" height="296" rx="8" fill="url(#screen)"/>
<g fill="#123d61"><path d="M258 331 337 274l54 34 75-96 75 96 65-54 68 51 78-82 74 83 116-64v124H258Z"/><path d="M258 351c145-33 310-28 490 12 65 15 129 16 194 4v29H258Z" fill="#2b86a4"/></g>
<g fill="#f0d76a"><rect x="330" y="296" width="44" height="63"/><rect x="409" y="270" width="47" height="89"/><rect x="500" y="284" width="42" height="75"/><rect x="602" y="273" width="48" height="86"/><rect x="711" y="286" width="44" height="73"/><rect x="804" y="264" width="51" height="95"/></g>
<g fill="#e15955"><path d="m330 296 22-20 22 20ZM409 270l24-22 23 22ZM500 284l21-19 21 19ZM602 273l24-22 24 22ZM711 286l22-20 22 20ZM804 264l25-23 26 23Z"/></g>
<path d="M70 172 258 220v104L70 270Z" fill="url(#beam)"/>
<g transform="translate(58 184)"><rect width="86" height="66" rx="8" fill="#d6dce5"/><circle cx="25" cy="25" r="18" fill="#151a2e"/><circle cx="65" cy="23" r="14" fill="#151a2e"/><rect x="75" y="48" width="34" height="12" rx="4" fill="#d6dce5"/></g>
<g fill="#140c25"><path d="M0 533h1200v142H0Z"/><g><path d="M104 535h120l15 100H89Z"/><path d="M270 535h120l15 100H255Z"/><path d="M436 535h120l15 100H421Z"/><path d="M602 535h120l15 100H587Z"/><path d="M768 535h120l15 100H753Z"/><path d="M934 535h120l15 100H919Z"/></g></g>
<g fill="#4e2a65"><rect x="0" y="448" width="1200" height="22"/><rect x="0" y="487" width="1200" height="14"/></g>
<g fill="#ffd45b"><circle cx="282" cy="46" r="6"/><circle cx="918" cy="46" r="6"/><circle cx="600" cy="41" r="7"/></g>
</svg>