<svg xmlns="http://www.w3.org/2000/svg" viewBox="0 0 1200 675" role="img" aria-labelledby="t d">
<title id="t">Ilustración de taller de cerámica</title><desc id="d">Manos modelando una vasija de arcilla sobre un torno.</desc>
<defs><linearGradient id="bg" x1="0" y1="0" x2="1" y2="1"><stop stop-color="#3d251a"/><stop offset=".52" stop-color="#7c5031"/><stop offset="1" stop-color="#d19a61"/></linearGradient><radialGradient id="light" cx="54%" cy="44%" r="48%"><stop stop-color="#ffe5b4" stop-opacity=".9"/><stop offset="1" stop-color="#ffe5b4" stop-opacity="0"/></radialGradient><linearGradient id="clay" x1="0" y1="0" x2="0" y2="1"><stop stop-color="#e5a15f"/><stop offset="1" stop-color="#9e542d"/></linearGradient></defs>
<rect width="1200" height="675" fill="url(#bg)"/><rect width="1200" height="675" fill="url(#light)"/>
<ellipse cx="600" cy="572" rx="315" ry="62" fill="#3d2418" opacity=".55"/><ellipse cx="600" cy="555" rx="260" ry="45" fill="#c57a43"/><ellipse cx="600" cy="548" rx="210" ry="30" fill="#f1b06d"/>
<path d="M430 540c0-191 54-305 170-305s170 114 170 305Z" fill="url(#clay)"/>
<path d="M479 523c10-129 48-203 121-203s111 74 121 203Z" fill="#f0bb7e"/>
<path d="M524 505c8-73 33-117 76-117s68 44 76 117Z" fill="#8d4b29"/>
<path d="M542 492c8-44 28-68 58-68s50 24 58 68Z" fill="#4d2e20"/>
<g fill="#e7ba94"><path d="M112 135c126-78 232-34 330 92l-79 70c-72-78-135-98-224-45Z"/><path d="M1088 132c-128-76-235-30-333 99l80 68c70-81 136-99 225-48Z"/></g>
<g fill="#c98f6b"><path d="M367 219c63 41 97 99 104 181l-64 14c-12-63-44-108-94-137Z"/><path d="M833 223c-64 42-97 101-103 183l64 13c12-64 43-109 94-139Z"/></g>
<g stroke="#f8d5ae" stroke-width="18" fill="none" stroke-linecap="round"><path d="M397 262c32 25 55 65 66 118M803 267c-30 26-52 66-62 119"/></g>
<g fill="#f9d46a"><circle cx="218" cy="102" r="10"/><circle cx="962" cy="94" r="9"/><circle cx="1016" cy="176" r="7"/><circle cx="166" cy="188" r="8"/></g>
</svg>