<svg xmlns="http://www.w3.org/2000/svg" viewBox="0 0 1200 675" role="img" aria-labelledby="t d">
<title id="t">Ilustración de concierto</title><desc id="d">Escenario con luces, músicos y público en una atmósfera magenta y azul.</desc>
<defs>
  <linearGradient id="bg" x1="0" y1="0" x2="1" y2="1"><stop stop-color="#20064d"/><stop offset=".48" stop-color="#6a0d82"/><stop offset="1" stop-color="#e52a77"/></linearGradient>
  <radialGradient id="glow" cx="50%" cy="18%" r="70%"><stop stop-color="#ffd56a" stop-opacity=".95"/><stop offset=".28" stop-color="#ff7b96" stop-opacity=".45"/><stop offset="1" stop-color="#1c073f" stop-opacity="0"/></radialGradient>
  <filter id="soft"><feGaussianBlur stdDeviation="16"/></filter>
  <linearGradient id="beam1" x1="0" y1="0" x2="0" y2="1"><stop stop-color="#fff6c8" stop-opacity=".9"/><stop offset="1" stop-color="#ff9ac8" stop-opacity="0"/></linearGradient>
</defs>
<rect width="1200" height="675" fill="url(#bg)"/>
<rect width="1200" height="675" fill="url(#glow)"/>
<g opacity=".9"><path d="M170 0h70l160 520H260Z" fill="url(#beam1)"/><path d="M960 0h70L860 520H720Z" fill="url(#beam1)"/><path d="M535 0h130l50 510H485Z" fill="#8ee9ff" opacity=".18"/></g>
<g fill="#ffd85d"><circle cx="198" cy="86" r="18"/><circle cx="1002" cy="90" r="16"/><circle cx="600" cy="65" r="13"/></g>
<g fill="#150a2d"><rect x="0" y="456" width="1200" height="219"/></g>
<g transform="translate(0 22)">
  <g fill="#080713"><circle cx="450" cy="366" r="34"/><path d="M408 404c28-35 76-35 104 0l25 123H383Z"/><path d="M459 408v-85h15v83Z"/><path d="M465 326c37-25 73-28 111-9" fill="none" stroke="#080713" stroke-width="16" stroke-linecap="round"/></g>
  <g fill="#090815"><circle cx="737" cy="352" r="31"/><path d="M698 390c25-31 70-31 95 0l18 137H681Z"/><path d="M720 408 668 343" stroke="#090815" stroke-width="18" stroke-linecap="round"/><path d="m745 402 72-70" stroke="#090815" stroke-width="18" stroke-linecap="round"/></g>
  <g fill="#f1b349" opacity=".9"><ellipse cx="598" cy="474" rx="85" ry="20"/><rect x="535" y="436" width="126" height="18" rx="9"/></g>
</g>
<g fill="#0c071b"><path d="M0 584c110-64 213-79 321-33 99-45 193-37 278 16 118-58 218-53 316 8 96-47 184-42 285 4v96H0Z"/>
<g><circle cx="73" cy="560" r="27"/><circle cx="170" cy="544" r="31"/><circle cx="275" cy="566" r="29"/><circle cx="389" cy="548" r="34"/><circle cx="516" cy="570" r="28"/><circle cx="646" cy="548" r="32"/><circle cx="780" cy="569" r="30"/><circle cx="907" cy="546" r="33"/><circle cx="1032" cy="563" r="28"/><circle cx="1142" cy="550" r="31"/></g></g>
<g fill="none" stroke="#fff" stroke-width="8" stroke-linecap="round" opacity=".75"><path d="M85 500c25-38 31-66 20-98M170 492c6-45 0-78-20-101M1018 498c-9-45-4-79 15-103M1112 500c-20-39-26-69-18-93"/></g>
<g filter="url(#soft)" opacity=".45"><circle cx="300" cy="250" r="45" fill="#ff3ea5"/><circle cx="880" cy="260" r="55" fill="#2ed8ff"/></g>
</svg>