<svg xmlns="http://www.w3.org/2000/svg" viewBox="0 0 96 96" role="img" aria-labelledby="title">
  <title id="title">Casas coloridas sobre el mar</title>
  <rect width="96" height="96" rx="18" fill="#f7fbff"/>
  <path d="M9 68h78v15H9z" fill="#0b79ad"/>
  <path d="M8 73c10-7 18 7 28 0s18 7 28 0 18 7 25 0" fill="none" stroke="#fff" stroke-width="3" stroke-linecap="round"/>
  <path d="M15 37h22v31H15z" fill="#0a3a70"/>
  <path d="m13 38 13-12 13 12z" fill="#e63d48"/>
  <path d="M39 24h24v44H39z" fill="#d8323d"/>
  <path d="m37 25 14-14 14 14z" fill="#0b2b57"/>
  <path d="M65 40h18v28H65z" fill="#13998f"/>
  <path d="m63 41 11-10 11 10z" fill="#f07a1c"/>
  <g fill="#ffe15f"><rect x="20" y="45" width="6" height="8" rx="1"/><rect x="29" y="45" width="5" height="8" rx="1"/><rect x="47" y="31" width="7" height="9" rx="1"/><rect x="68" y="48" width="5" height="7" rx="1"/></g>
  <g fill="#fff"><rect x="23" y="57" width="7" height="11" rx="1"/><rect x="47" y="49" width="8" height="19" rx="1"/><rect x="74" y="56" width="6" height="12" rx="1"/></g>
  <circle cx="52" cy="19" r="3" fill="#ffd23f"/>
</svg>
